<svg xmlns="http://www.w3.org/2000/svg" viewBox="0 0 500 500"><g id="freepik--background-complete--inject-160"><path d="M71.36,44.43c43.43-.66,91.71-.65,135.16,0-43.46.65-91.72.67-135.16,0Z" style="fill:#ebebeb"></path><path d="M56.06,62.75c44.74-.67,94.49-.65,139.26,0-44.78.65-94.51.66-139.26,0Z" style="fill:#ebebeb"></path><path d="M85.35,44.43a81.33,81.33,0,0,1,0,18.32,81.92,81.92,0,0,1,0-18.32Z" style="fill:#ebebeb"></path><path d="M153.53,44.43a81.92,81.92,0,0,1,0,18.32,81.33,81.33,0,0,1,0-18.32Z" style="fill:#ebebeb"></path><path d="M119.44,62.67a81.92,81.92,0,0,1,0,18.32,81.92,81.92,0,0,1,0-18.32Z" style="fill:#ebebeb"></path><path d="M368.78,44.43c21.7-.67,43.56-.67,65.27,0-21.72.67-43.56.67-65.27,0Z" style="fill:#ebebeb"></path><path d="M346.34,62.75c31.59-.67,66.71-.65,98.32,0-31.62.65-66.73.66-98.32,0Z" style="fill:#ebebeb"></path><path d="M402.86,44.43a81.33,81.33,0,0,1,0,18.32,81.92,81.92,0,0,1,0-18.32Z" style="fill:#ebebeb"></path><path d="M368.78,62.67a81.92,81.92,0,0,1,0,18.32,81.33,81.33,0,0,1,0-18.32Z" style="fill:#ebebeb"></path><path d="M118.62,389c43.42-.67,91.7-.65,135.16,0-43.47.65-91.73.66-135.16,0Z" style="fill:#ebebeb"></path><path d="M86.21,407.34c44.74-.66,94.49-.65,139.26,0-44.78.65-94.51.67-139.26,0Z" style="fill:#ebebeb"></path><path d="M248.36,370.84c27.91-.66,58.8-.66,86.72,0-27.92.66-58.8.66-86.72,0Z" style="fill:#ebebeb"></path><path d="M279.05,389c27.91-.66,58.79-.66,86.71,0-27.92.66-58.8.65-86.71,0Z" style="fill:#ebebeb"></path><path d="M153.56,389a81.83,81.83,0,0,1,0,18.31,81.24,81.24,0,0,1,0-18.31Z" style="fill:#ebebeb"></path><path d="M221.76,389a81.83,81.83,0,0,1,0,18.31,81.24,81.24,0,0,1,0-18.31Z" style="fill:#ebebeb"></path><path d="M290,389a81.83,81.83,0,0,1,0,18.31A81.24,81.24,0,0,1,290,389Z" style="fill:#ebebeb"></path><path d="M358.16,389a81.83,81.83,0,0,1,0,18.31,81.24,81.24,0,0,1,0-18.31Z" style="fill:#ebebeb"></path><path d="M119.44,407.26a81.92,81.92,0,0,1,0,18.32,81.92,81.92,0,0,1,0-18.32Z" style="fill:#ebebeb"></path><path d="M187.75,407.26a81.33,81.33,0,0,1,0,18.32,81.92,81.92,0,0,1,0-18.32Z" style="fill:#ebebeb"></path><path d="M324.38,370.33a81.83,81.83,0,0,1,0,18.31,80.66,80.66,0,0,1,0-18.31Z" style="fill:#ebebeb"></path><path d="M248.36,213.07c27.91-.66,58.8-.66,86.72,0-27.92.66-58.8.66-86.72,0Z" style="fill:#ebebeb"></path><path d="M279.05,231.26c27.91-.66,58.79-.66,86.71,0-27.92.66-58.8.66-86.71,0Z" style="fill:#ebebeb"></path><path d="M290,231.26a81.92,81.92,0,0,1,0,18.32,81.33,81.33,0,0,1,0-18.32Z" style="fill:#ebebeb"></path><path d="M358.16,231.26a81.92,81.92,0,0,1,0,18.32,81.33,81.33,0,0,1,0-18.32Z" style="fill:#ebebeb"></path><path d="M324.38,212.56a81.92,81.92,0,0,1,0,18.32,80.75,80.75,0,0,1,0-18.32Z" style="fill:#ebebeb"></path><path d="M124.37,141.73c44.75-.66,94.49-.65,139.26,0-44.78.65-94.5.66-139.26,0Z" style="fill:#ebebeb"></path><path d="M172.58,160c30.07-.66,63.51-.64,93.6,0-30.1.65-63.52.67-93.6,0Z" style="fill:#ebebeb"></path><path d="M221.84,123.42a81.83,81.83,0,0,1,0,18.31,81.24,81.24,0,0,1,0-18.31Z" style="fill:#ebebeb"></path><path d="M187.75,141.73a81.24,81.24,0,0,1,0,18.31,81.83,81.83,0,0,1,0-18.31Z" style="fill:#ebebeb"></path><path d="M345.94,141.73c31.85-.66,67.25-.65,99.12,0-31.88.65-67.27.66-99.12,0Z" style="fill:#ebebeb"></path><path d="M354,160c23.33-.67,46.81-.67,70.15,0-23.34.68-46.82.68-70.15,0Z" style="fill:#ebebeb"></path><path d="M403.26,159.84a81.83,81.83,0,0,1,0,18.31,81.24,81.24,0,0,1,0-18.31Z" style="fill:#ebebeb"></path><path d="M369.17,141.73a81.24,81.24,0,0,1,0,18.31,81.83,81.83,0,0,1,0-18.31Z" style="fill:#ebebeb"></path><path d="M255.92,141.73a81.24,81.24,0,0,1,0,18.31,81.83,81.83,0,0,1,0-18.31Z" style="fill:#ebebeb"></path><path d="M103.34,213.05c19.26-.67,38.66-.67,57.93,0-19.27.68-38.67.68-57.93,0Z" style="fill:#ebebeb"></path><path d="M89.79,231.37c30.07-.67,63.5-.65,93.59,0-30.1.65-63.52.66-93.59,0Z" style="fill:#ebebeb"></path><path d="M119.47,194.74a81.83,81.83,0,0,1,0,18.31,81.83,81.83,0,0,1,0-18.31Z" style="fill:#ebebeb"></path><path d="M153.56,213.05a81.92,81.92,0,0,1,0,18.32,81.33,81.33,0,0,1,0-18.32Z" style="fill:#ebebeb"></path><circle cx="117.9" cy="72.23" r="27.31" transform="translate(-19.93 83.14) rotate(-36.02)" style="fill:#ebebeb;opacity:0.19"></circle><circle cx="117.9" cy="76.72" r="20.25" style="fill:#ebebeb;opacity:0.19"></circle><polygon points="147.72 76.72 128.85 108.87 106.95 108.87 88.08 76.72 147.72 76.72" style="fill:#ebebeb"></polygon><polygon points="133.98 119.7 101.83 119.7 106.95 108.87 128.85 108.87 133.98 119.7" style="fill:#ebebeb"></polygon><polygon points="132.26 103.07 128.86 108.87 106.95 108.87 104.36 104.48 132.26 103.07" style="fill:#c7c7c7"></polygon><circle cx="250" cy="72.23" r="27.31" transform="translate(112.04 292.87) rotate(-74.1)" style="fill:#ebebeb;opacity:0.19"></circle><circle cx="250" cy="76.72" r="20.25" style="fill:#ebebeb;opacity:0.19"></circle><polygon points="279.82 76.72 260.95 108.87 239.05 108.87 220.18 76.72 279.82 76.72" style="fill:#ebebeb"></polygon><polygon points="266.08 119.7 233.93 119.7 239.05 108.87 260.95 108.87 266.08 119.7" style="fill:#ebebeb"></polygon><polygon points="264.36 103.07 260.96 108.87 239.05 108.87 236.47 104.48 264.36 103.07" style="fill:#c7c7c7"></polygon><circle cx="382.1" cy="72.23" r="27.31" transform="translate(169.89 398.09) rotate(-67.63)" style="fill:#ebebeb;opacity:0.19"></circle><circle cx="382.1" cy="76.72" r="20.25" style="fill:#ebebeb;opacity:0.19"></circle><polygon points="411.92 76.72 393.05 108.87 371.15 108.87 352.28 76.72 411.92 76.72" style="fill:#ebebeb"></polygon><polygon points="398.18 119.7 366.03 119.7 371.15 108.87 393.05 108.87 398.18 119.7" style="fill:#ebebeb"></polygon><polygon points="396.46 103.07 393.06 108.87 371.14 108.87 368.56 104.48 396.46 103.07" style="fill:#c7c7c7"></polygon></g><g id="freepik--speech-bubbles--inject-160"><path d="M213.52,118.61a35.79,35.79,0,0,1-59.83,22.65l-17.92,2.63,9-15.49a35.39,35.39,0,0,1-2.46-17.24,35.81,35.81,0,1,1,71.24,7.45Z" style="fill:#fff"></path><path d="M213.52,118.61a36,36,0,0,1-7.23,18.15,39.84,39.84,0,0,1-3.24,3.74,42.62,42.62,0,0,1-3.78,3.2,35.35,35.35,0,0,1-8.64,4.81,35.88,35.88,0,0,1-9.64,2.3,34.51,34.51,0,0,1-5,.09,30.44,30.44,0,0,1-4.95-.51,36.19,36.19,0,0,1-17.72-8.75l.42.13-17.9,2.75-1.3.2.66-1.15,8.91-15.52,0,.62a36.17,36.17,0,1,1,69.43-10.06Zm0,0a35.41,35.41,0,0,0-40.61-38.75,35.18,35.18,0,0,0-14.79,5.84A37.06,37.06,0,0,0,147.4,97.38a35.35,35.35,0,0,0-4.54,15.16,35.72,35.72,0,0,0,2.52,15.6l.13.32-.17.29-9,15.46-.64-1,17.93-2.51.25,0,.18.16a35.32,35.32,0,0,0,17.14,8.84,31.93,31.93,0,0,0,4.86.59,34.28,34.28,0,0,0,14.47-2.12,33.25,33.25,0,0,0,8.64-4.65,32.41,32.41,0,0,0,7-6.86A36.05,36.05,0,0,0,213.52,118.61Z" style="fill:#263238"></path><path d="M159.46,114.86a3.3,3.3,0,1,0,3.29-3.3A3.29,3.29,0,0,0,159.46,114.86Z" style="fill:#263238"></path><path d="M175.27,114.86a3.3,3.3,0,1,0,3.29-3.3A3.29,3.29,0,0,0,175.27,114.86Z" style="fill:#263238"></path><path d="M191.08,114.86a3.3,3.3,0,1,0,3.29-3.3A3.29,3.29,0,0,0,191.08,114.86Z" style="fill:#263238"></path><path d="M381.29,108.93a35.79,35.79,0,0,1-59.83,22.65l-17.91,2.63,9-15.49a35.81,35.81,0,1,1,68.78-9.79Z" style="fill:#fff"></path><path d="M381.29,108.93a35.93,35.93,0,0,1-7.22,18.15,38.53,38.53,0,0,1-3.25,3.74A39.71,39.71,0,0,1,367,134a35.17,35.17,0,0,1-8.64,4.81,35.79,35.79,0,0,1-9.64,2.3,34.39,34.39,0,0,1-5,.09,30.56,30.56,0,0,1-5-.51A36.23,36.23,0,0,1,321.11,132l.43.13-17.9,2.75-1.3.2.66-1.15,8.91-15.51,0,.61a36.21,36.21,0,0,1,2.2-31.92,36.61,36.61,0,0,1,11.22-11.94,36.37,36.37,0,0,1,31.47-4.24,36.49,36.49,0,0,1,13.82,8.47A36,36,0,0,1,381.29,108.93Zm0,0a35.41,35.41,0,0,0-40.61-38.75A35.18,35.18,0,0,0,325.89,76a36.84,36.84,0,0,0-10.71,11.69,35.28,35.28,0,0,0-4.55,15.15,35.87,35.87,0,0,0,2.52,15.6l.13.32-.17.29-9,15.46-.64-.95,17.94-2.51.24,0,.18.16A35.31,35.31,0,0,0,339,140a31.63,31.63,0,0,0,4.86.59,34.22,34.22,0,0,0,14.46-2.12,33.09,33.09,0,0,0,8.64-4.65,32.41,32.41,0,0,0,7-6.86A35.93,35.93,0,0,0,381.29,108.93Z" style="fill:#263238"></path><path d="M327.23,105.18a3.3,3.3,0,1,0,3.3-3.3A3.29,3.29,0,0,0,327.23,105.18Z" style="fill:#263238"></path><path d="M343,105.18a3.3,3.3,0,1,0,3.3-3.3A3.29,3.29,0,0,0,343,105.18Z" style="fill:#263238"></path><path d="M358.85,105.18a3.3,3.3,0,1,0,3.3-3.3A3.29,3.29,0,0,0,358.85,105.18Z" style="fill:#263238"></path></g><g id="freepik--character-2--inject-160"><path d="M305.16,300.18s-.1.36-.27,1l-.1.4s0,.07,0,.12-.06.22-.09.35l-.34,1.27c-.06.23-.13.49-.19.76-.59,2.26-1.43,5.44-2.45,9.38-.12.46-.23.94-.36,1.42a2.8,2.8,0,0,0-.09.31c-.8,3.1-1.72,6.61-2.73,10.47-.21.79-.42,1.61-.63,2.43q-1.29,5-2.75,10.58c-.06.22-.13.45-.18.69-1.76,6.79-3.68,14.21-5.71,22-6,23-12.8,49.42-19,73.6-.22.81-.42,1.63-.64,2.44-.08.29-.16.59-.22.9-.18.7-.37,1.41-.54,2.11-.11.4-.2.79-.31,1.19l-.48,1.87h0c-.65,2.49-1.27,5-1.89,7.39h0c-.14.53-.27,1.06-.41,1.59h0c-.48,1.88-1,3.72-1.43,5.55H187.05c8.44-30.06,19.61-67.22,29-97.92,10.36-33.9,18.57-60,18.57-60Z" style="fill:#263238"></path><path d="M294.72,300.19c-12.8,52.8-27.05,105.86-42.45,158,12.8-52.81,27.07-105.86,42.45-158Z" style="fill:#455a64"></path><path d="M236.34,300.19c4.89,37.87,22.6,100.8,29.41,152.32,15.9-62.43,39.41-152.32,39.41-152.32Z" style="opacity:0.1"></path><path d="M345.39,458.06H266.82l-7.92-87.31c-4.23-1.95-11.14-5.2-11.14-5.2s-4.82-25.44-7.76-43.18v0c-1.83-11-3.33-20.15-3.62-21.87,0-.12,0-.19,0-.25l0,0h91.26s8.87,38.61,9.64,51.74c.25,4.21-1.13,16.85-1.13,16.85Z" style="fill:#263238"></path><path d="M241.55,362.69c10.17,3.28,20,8,29.45,13a.33.33,0,0,1-.26.61c-9.91-4-20-7.88-29.7-12.44A.65.65,0,0,1,241.55,362.69Z" style="fill:#455a64"></path><path d="M318.58,343.77c-.88-.37-16.65-.34-23.64-7.39-6.4-6.45-8.38-24.6-8.52-24.63a.24.24,0,0,0-.27.1c-.25.38-.92,14.57,6.54,25,5.26,7.38,23.86,7.81,25.88,7.49C318.93,344.32,318.83,343.88,318.58,343.77Z" style="fill:#455a64"></path><path d="M225.75,335.75c.75-.61,4.31-1.15,7.77-7.92a36.56,36.56,0,0,0,2.93-8.42c.39-1.73,1.69-10.21,1.79-10.25s.09,0,.11.11c.12.59-.68,8.35-1,10.33a31.68,31.68,0,0,1-3,9.7c-3.33,5.9-7.84,7.41-8.61,7C225.58,336.24,225.64,335.84,225.75,335.75Z" style="fill:#455a64"></path><path d="M246.32,310c0-.26.5-.27.47,0-.89,8.8-1,16.6-1.09,24.9,0,3.86,1.08,25.27,7.85,24.35,1.14-.15,1.8-1.19,2.14-2.85.39-2-.13-4.53-.28-6.56-.32-4.49-.49-9-.45-13.48a121.58,121.58,0,0,1,2.62-25,.21.21,0,0,1,.42.06c-1.09,11.54-1.87,23.09-1.22,34.68.31,5.58,2.3,14.11-3.52,14.41s-8.42-13.9-8.78-17.75C243.48,332.05,244.48,320.63,246.32,310Z" style="fill:#455a64"></path><path d="M253.32,359.82a35.36,35.36,0,0,1,1.08,4.52,9.86,9.86,0,0,1,.28,3.66c-.05.23-.36.22-.47.05a12.89,12.89,0,0,1-1.21-3.64c-.37-1.4-.78-2.8-1.12-4.21A.75.75,0,0,1,253.32,359.82Z" style="fill:#455a64"></path><path d="M320.85,303.55c3,15.22,5.79,30.47,8,45.82.5,2.69.27,18.43.35,21.12,2.82,28.11,5.67,59.34,7.56,87.5-3.57-28-6.8-59.23-9.46-87.36-.07-3.07.32-18.3-.14-21.06-1.66-13.86-4.44-32.12-6.28-46Z" style="fill:#455a64"></path><path d="M267,228.36c-17.74,34.82-32.86,70.69-53.22,76.26-19.37,5.3-55.8-36.28-67.89-50-4.08-4.62,30-36.51,35.22-32.5,9.87,7.57,28.72,29.38,31.76,28.73s21.42-22.31,44.58-42C271.46,196.92,279.25,204.25,267,228.36Z" style="fill:#ad6359"></path><path d="M148.68,256.35c-4.78-2.63-25.58-16.62-30.5-21.81s-18-21.14-14.4-25.31,7.79.19,7.79.19-4.45-7.61-.46-11.48,10.31,3.14,10.31,3.14-4-8.15.26-11.73,9.43,4.54,9.43,4.54-4-7.29.74-8.75c5.72-1.77,11.59,12.49,17.45,17.81,1.33,1.21,28.72,22.57,28.72,22.57Z" style="fill:#ad6359"></path><path d="M130.65,193.2c4.35,10.48,8.06,14.31,17.18,20.75a.17.17,0,0,1-.17.3c-9.5-5.49-14.85-9.63-17.52-20.87C130,192.83,130.45,192.7,130.65,193.2Z" style="fill:#263238"></path><path d="M121.09,200.24c5.46,10.49,9.45,14.68,18.51,22.12.13.11,0,.34-.18.24-9.49-6.56-14.73-10.81-18.81-22C120.42,200.09,120.84,199.76,121.09,200.24Z" style="fill:#263238"></path><path d="M112,209.78c6,9.78,10.2,14.56,19.92,20.66a.21.21,0,0,1-.2.37c-10.52-5.26-15.78-11.19-20-20.81C111.48,209.34,111.66,209.17,112,209.78Z" style="fill:#263238"></path><path d="M185.72,226.56s-4.26-13.56-7.44-19.1-22.66-21.83-26.41-17.83c-4.85,5.17,4.53,16.79,9.87,21.88,0,0-11.23,12-6.29,21.75S185.72,226.56,185.72,226.56Z" style="fill:#ad6359"></path><path d="M151,191.49c-1,7.91,6.42,14.13,11.23,19.46A.66.66,0,0,1,162,212c-4.38,5.32-9,14.11-7,21.11a.16.16,0,0,1-.31.11c-3.14-7.22.7-16.22,5.86-21.74-5-5.38-12.21-12-9.65-20C150.94,191.43,151,191.44,151,191.49Z" style="fill:#263238"></path><path d="M191.7,225.54l-37.63,40.9s40.83,44.66,59.68,39.7,46.7-54.81,57.76-87.45c7.65-22.58-4.82-18.81-17.82-7.63s-39.74,37.2-41.25,36.82S191.7,225.54,191.7,225.54Z" style="fill:#455a64"></path><path d="M166.53,273c5.45-5.65,26.92-29.56,31.21-35,.3-.38.13-.66-.23-.3-16.75,16.51-26.13,29.3-31.2,35.11C166.18,272.94,166.39,273.16,166.53,273Z" style="fill:#263238"></path><path d="M273.63,210.44q-.09.6-.21,1.26c-.09.44-.18.9-.29,1.37a58.19,58.19,0,0,1-1.62,5.62c-.26.78-.54,1.57-.83,2.37s-.59,1.66-.9,2.51-.63,1.68-1,2.53c-9.49,24.64-26.68,56-41.82,71.07l-.16.22h0c-4.6,4.56-9.05,7.68-13.08,8.74-3.26.86-7.19.23-11.45-1.4,15.53-24.92,47.25-76.68,64.63-101.62a12.23,12.23,0,0,1,2-.91h0a4.24,4.24,0,0,1,3.51.95c.1.1.19.2.29.32a3.79,3.79,0,0,1,.48.76,6,6,0,0,1,.48,1.51A14.5,14.5,0,0,1,273.63,210.44Z" style="fill:#000102;opacity:0.1"></path><path d="M223.65,331.79l111-.39c.26-.26-.16-4.57-.35-6.29,0-.32,5.66-5.11,4.75-10.08-5.32-29.1-26-88.6-41.74-109.56-7.92-10.52-29.24-9.75-37.22,3.81-11,18.73-31.84,77.48-38.21,107-.74,3.44,3,9.62,3,10.7Z" style="fill:#455a64"></path><path d="M309.27,215.68c27.62,37.9,57.85,91,48.11,103.91C346.54,334,311,298.47,310,295.93c-1.13-2.85-13.74-38.27-18.9-71.22C285.43,188.56,302.45,206.31,309.27,215.68Z" style="fill:#ad6359"></path><path d="M309.27,215.68c27.62,37.9,57.85,91,48.11,103.91C346.54,334,311,298.47,310,295.93c-1.13-2.85-13.74-38.27-18.9-71.22C285.43,188.56,302.45,206.31,309.27,215.68Z" style="fill:#455a64"></path><path d="M310,295.93a322.53,322.53,0,0,1-11.3-33.28c-3.12-11.29-6-22.74-7-34.44,5.15,22.44,12.57,45.41,18.33,67.72Z" style="fill:#263238"></path><path d="M290.73,232.92a45.36,45.36,0,0,1,3.4,9.89,19.17,19.17,0,0,1-3.4-9.89Z" style="fill:#263238"></path><path d="M270.8,244s16.53-13.05,20.28-16.64,5.81-23.4,1.71-27S272.72,198,267.7,201.9s-8.84,16.35-9.23,18.85,5.78,22,5.78,22l3.45-4.67s-3.58-15.43-3.45-17.93,2.77-15,4-16.89,19.7-1.64,21.11-.82-1,16.66-1.81,19.34-17.4,18.2-17.4,18.2Z" style="fill:#263238"></path><path d="M273.23,237.08,270.16,240l.64,4s2-1.58,4.78-3.81Z" style="opacity:0.1"></path><path d="M262.78,238c.85,2.81,1.47,4.79,1.47,4.79l3.45-4.66s-.31-1.3-.72-3.2Z" style="opacity:0.1"></path><polygon points="273.11 242.2 267.7 238.09 263.23 239.47 264.7 247.78 270.69 248.24 273.11 242.2" style="fill:#263238"></polygon><polygon points="270.69 248.24 277.31 313.81 260.57 332.76 255.43 309.63 264.7 247.78 270.69 248.24" style="fill:#263238"></polygon><polygon points="270.69 248.24 264.7 247.78 264.52 248.99 270.95 250.85 270.69 248.24" style="opacity:0.1"></polygon><path d="M268.94,216.57c6,3.45,18-4.51,22.89-12.29.33-.53.8-22.43,1.06-26.85.06-.91-28.08,5.11-28.08,5.11s2.18,9.41,1.68,17.11a9.94,9.94,0,0,1-.3,1.8c0,.08,0,.18-.05.3C265.37,205.16,265.89,214.81,268.94,216.57Z" style="fill:#ad6359"></path><path d="M266.14,201.75a17.14,17.14,0,0,0,2.83.31c14.55.53,20.8-16.94,22.86-24.67-5.12.47-27,5.14-27,5.14s2.19,9.42,1.68,17.13a9.86,9.86,0,0,1-.28,1.79A1.76,1.76,0,0,0,266.14,201.75Z" style="fill:#263238"></path><path d="M297.4,143.22c3.12,9.8-1.73,38.28-8.65,44.7-10,9.31-26.62,10.38-34.57-1.71-7.71-11.73-.73-48.73,7-54.58C272.6,123,292.79,128.75,297.4,143.22Z" style="fill:#ad6359"></path><path d="M272.08,160.91c0-.07.13.11.12.19-.38,1.91-.49,4.16,1.14,5.09.05,0,0,.12,0,.1C271.24,165.64,271.41,162.66,272.08,160.91Z" style="fill:#263238"></path><path d="M274.12,159.19c3.13.27,2.35,6.5-.55,6.25S271.5,159,274.12,159.19Z" style="fill:#263238"></path><path d="M260.86,159.85c0-.07-.16.08-.17.16-.18,1.93-.71,4.12-2.54,4.54,0,0-.06.12,0,.11C260.32,164.63,261,161.72,260.86,159.85Z" style="fill:#263238"></path><path d="M259.39,157.62c-3.07-.62-4.1,5.57-1.25,6.15S262,158.15,259.39,157.62Z" style="fill:#263238"></path><path d="M277.2,156.52a21.26,21.26,0,0,1-2.5-.63,4.16,4.16,0,0,1-2.43-1.12,1.32,1.32,0,0,1,.06-1.62,3.31,3.31,0,0,1,3.28-.65,4.84,4.84,0,0,1,3,1.83A1.41,1.41,0,0,1,277.2,156.52Z" style="fill:#263238"></path><path d="M257.54,154.5a24.52,24.52,0,0,0,2.56-.32,4.16,4.16,0,0,0,2.54-.83,1.31,1.31,0,0,0,.14-1.61,3.3,3.3,0,0,0-3.17-1,4.81,4.81,0,0,0-3.17,1.45A1.42,1.42,0,0,0,257.54,154.5Z" style="fill:#263238"></path><path d="M272.08,179.3c-.51.39-1.05,1-1.76.93a5.16,5.16,0,0,1-2-.75.07.07,0,0,0-.09.09,2.64,2.64,0,0,0,2.32,1.36,2.09,2.09,0,0,0,1.73-1.52C272.3,179.3,272.16,179.24,272.08,179.3Z" style="fill:#263238"></path><path d="M270.41,173a6.63,6.63,0,0,1-4.75,2.38,8.67,8.67,0,0,1-2.38-.19,2.83,2.83,0,0,1-.44-.11l-.42-.12a.48.48,0,0,1-.33-.48h0a1.42,1.42,0,0,1,0-.2h0l0-.17c.15-1.49.57-3.74.57-3.74-.57.21-3.5,1.11-3.36.33,1.19-6.38,2.52-13.47,5.05-19.57.07-.2.39-.11.34.09-.9,6.18-2.88,12.16-3.88,18.35a11.1,11.1,0,0,1,3.22-.55c.2.08-.91,4.32-.92,5a.32.32,0,0,0,0,.07c2.45.64,4.43.12,7.06-1.26C270.41,172.73,270.55,172.88,270.41,173Z" style="fill:#263238"></path><path d="M264.44,175.1a7.9,7.9,0,0,0,3.11,2.55,3.59,3.59,0,0,0,2.16.2c1.58-.37,1.66-1.81,1.41-3a8.94,8.94,0,0,0-.65-1.91A10.31,10.31,0,0,1,264.44,175.1Z" style="fill:#263238"></path><path d="M267.55,177.65a3.59,3.59,0,0,0,2.16.2c1.58-.37,1.66-1.81,1.41-3C269.43,174.93,267.74,176,267.55,177.65Z" style="fill:#ff98b9"></path><path d="M297.21,168.24c-4.24,1-7.38-4.1-8.36-6.76s1.45-17.14-.45-21.14-6.18-6.33-9.67-5.44-8.13,5.27-10.67,4.94-2.95-5.87-4.72-5.93c-3.91-.15-8.66,9.12-9.52,13.38,0,0,.67-19.28,19.44-20.27,18.31-1,24.8,10.34,26.19,15.9C302.11,153.57,297.21,168.24,297.21,168.24Z" style="fill:#263238"></path><path d="M289.49,165.37s6.32-9.27,10.51-7-.48,15.61-5.35,17.49a5,5,0,0,1-6.7-2.6Z" style="fill:#ad6359"></path><path d="M298.57,162.15c.08,0,.09.1,0,.13-3.41,1.43-5.18,4.63-6.41,7.94,1-1.28,2.39-2,4.11-.79.09.06,0,.2-.1.18a3.05,3.05,0,0,0-3.35,1.11,14.94,14.94,0,0,0-1.59,2.74c-.15.31-.71.15-.6-.2l0-.08C290.54,168.8,293.87,162.64,298.57,162.15Z" style="fill:#263238"></path><path d="M265.86,199.84l6.84,15.42,19.48-18.75,5.74,6.16s-18.65,30.39-18.82,29l-6.93-13.25-9,9.71-.08-23.58Z" style="fill:#ebebeb"></path><path d="M262.5,216.44c.12-3.89.13-7.81.42-11.7,0-.14.23-.2.27,0,.91,3.72.38,18.61.52,22.17l0-.05c.38-.41,8.34-8.56,8.42-8.43,1.48,2.09,6.56,11.74,6.91,12.62,2.83-5.1,15.64-23.52,19-28.37a.13.13,0,0,1,.23.13c-2.46,5.37-18.78,30.21-19,30.15a154.91,154.91,0,0,1-7.25-14c-1.33,1.76-9.33,10.92-9.38,10.34A121.45,121.45,0,0,1,262.5,216.44Z" style="fill:#263238"></path><g style="opacity:0.5"><path d="M254.91,213.66v32c0,11.37-5.28,21.55-5.28,27.62V294.5h-24V273.32c0-6.07-5.29-16.25-5.29-27.62v-32Z" style="fill:#ebebeb"></path><path d="M254.91,213.66,255,234c-.1,6,.5,14.5-.84,20.35-1.07,6.67-4.25,13-4.36,19.8l0,20.35v.21h-.2l-24,0h-.25v-.25l0-20.35c.09-3.38-1-6.65-1.86-9.91-1.91-6.5-3.59-13.21-3.38-20,0-6.61,0-23.86.05-30.67.08-.11,34.6.21,34.7.13Zm0,0-34.57.14.14-.14c0,6.84,0,24,0,30.54-.18,6.82,1.51,13.44,3.43,19.93.91,3.26,2,6.58,1.9,10l0,20.35-.24-.24,24,0-.21.2,0-20.35c.13-6.84,3.33-13.17,4.42-19.86,1.35-5.79.82-14.28,1-20.24l.08-20.39Z" style="fill:#263238"></path></g><g style="opacity:0.8"><path d="M252.87,228.5v18.19c0,10-5.38,19-5.38,24.36v18H227.76v-18c0-5.35-5.38-14.33-5.38-24.36V226.38c4,0,5.71,2.78,12.53,3.32C240.65,230.16,248.67,227,252.87,228.5Z" style="fill:#263238"></path><g style="opacity:0.1"><path d="M248.05,256.82a1.47,1.47,0,1,0,.1,2.07A1.47,1.47,0,0,0,248.05,256.82Z"></path><path d="M250,233a1.47,1.47,0,1,0,.1,2.07A1.46,1.46,0,0,0,250,233Z"></path><path d="M248.24,251.74a1,1,0,1,0,.07,1.46A1,1,0,0,0,248.24,251.74Z"></path><path d="M233.48,284.91A1,1,0,0,0,232,285a1,1,0,1,0,1.53,1.39A1,1,0,0,0,233.48,284.91Z"></path><path d="M226.53,234.75a1,1,0,1,0,.07,1.46A1,1,0,0,0,226.53,234.75Z"></path><path d="M243.3,257.63a.73.73,0,1,0,0,1A.74.74,0,0,0,243.3,257.63Z"></path><path d="M230.54,282.53a.73.73,0,0,0-1,.05.74.74,0,0,0,.05,1,.73.73,0,0,0,1-.05A.74.74,0,0,0,230.54,282.53Z"></path></g></g><g style="opacity:0.6000000000000001"><path d="M232.28,294.5h-3v-25c0-1.39-1.05-5.07-2.07-8.63-1.41-5-2.88-10.08-2.88-13.1v-8.5h3v8.5c0,2.6,1.47,7.74,2.77,12.27,1.17,4.1,2.18,7.65,2.18,9.46Z" style="fill:#fff"></path><rect x="224.33" y="213.66" width="3" height="20.09" style="fill:#fff"></rect></g><path d="M257.65,211v0a4.79,4.79,0,0,1-4.79,4.78H241.27v8.67a2.76,2.76,0,1,1-5.52,0v-3.62a.91.91,0,0,0-1.82,0v6.63a4.34,4.34,0,0,1-8.68,0V215.81H222a4.79,4.79,0,1,1,0-9.57H223a6.35,6.35,0,0,1,.17-1.48,6.46,6.46,0,0,1,4.87-4.86,6.54,6.54,0,0,1,6.26,1.9,9,9,0,0,1,16.9,4.46h1.64A4.78,4.78,0,0,1,257.65,211Z" style="fill:#263238"></path><g style="opacity:0.8"><path d="M257.65,211v0a4.79,4.79,0,0,1-4.79,4.78H241.27v8.67a2.76,2.76,0,1,1-5.52,0v-3.62a.91.91,0,0,0-1.82,0v6.63a4.34,4.34,0,0,1-8.68,0V215.81H222a4.79,4.79,0,1,1,0-9.57H223a6.35,6.35,0,0,1,.17-1.48,6.46,6.46,0,0,1,4.87-4.86,6.54,6.54,0,0,1,6.26,1.9,9,9,0,0,1,16.9,4.46h1.64A4.78,4.78,0,0,1,257.65,211Z" style="fill:#fff"></path></g><path d="M352.91,321.61c-12.47,3.44-41.47-3.1-86.47-27.6-6.23-3.39,22.65-45,29.48-41.75,8.61,4.13,41.13,22,43.35,23.63C357.93,289.46,361.36,319.27,352.91,321.61Z" style="fill:#ad6359"></path><path d="M306.91,261.72s-2.48-1.8-14-13.46c-8-8-32.58-22.58-61.84-9.94-11.22,4.84-12.72,14.83-.17,11.86,8.83-2.08,14.77-4.29,17.85-4.16,0,0-8.6,10.92-6.32,18.64a149.1,149.1,0,0,0,7.39,19.76,31.91,31.91,0,0,0,3.82-1.05,16.93,16.93,0,0,0,14.54,10.68Z" style="fill:#ad6359"></path><path d="M284,241.79c-5.93-.43-18.52-1.13-29,1.88-11.65,3.34-33.2,12.91-30.65,21.49,1.88,6.29,10.42,3.36,10.42,3.36s-8.07,5.83-5.13,11.14c2.67,4.84,9.15,2.18,9.15,2.18s-4.29,4.38-.82,8.55c4.18,5,12.48-5,21.1-3.58C261,287.13,284,241.79,284,241.79Z" style="fill:#ad6359"></path><path d="M260.61,255.39c-5.64.51-18.16,5-25.75,12.88-.17.18-.13.41.06.28a119.18,119.18,0,0,1,25.73-13.05C260.71,255.48,260.68,255.39,260.61,255.39Z" style="fill:#263238"></path><path d="M263.64,267.25c-4.82.95-17.52,6.11-24.94,14.4-.16.18-.1.41.08.27a127.84,127.84,0,0,1,24.9-14.56C263.74,267.34,263.71,267.24,263.64,267.25Z" style="fill:#263238"></path><path d="M306,256.29l-29,48.07s68.78,26.46,78,17.07-3-37.84-13.73-45.06S306,256.29,306,256.29Z" style="fill:#455a64"></path><path d="M345.94,284.37c-1.41-1.85-4.5-7.76-11.45-12.51-6.06-4.13-24-13.89-28.59-15.45-.12,0-.18.07-.07.13,3.94,2.1,21.08,11.73,27.58,16.08a57.26,57.26,0,0,1,12.4,11.81C345.88,284.52,346,284.46,345.94,284.37Z" style="fill:#263238"></path><path d="M292.12,303.86a103.77,103.77,0,0,1,5.08-9.39c1.81-3.21,3.73-6.35,5.62-9.51s9.91-15.53,11.91-18.61a.12.12,0,0,1,.21.13c-1.8,3.22-9,15.95-10.84,19s-3.73,6.2-5.69,9.23a108,108,0,0,1-6.15,9.18C292.21,304,292.08,304,292.12,303.86Z" style="fill:#263238"></path><path d="M279.17,300.68c-.65,1.28-1.3,2.55-2,3.81l-.13-.36c22,7,43.76,14.91,66.51,19.15A104.46,104.46,0,0,1,326.33,321a261.09,261.09,0,0,1-49.45-16.36l-.27-.12c.83-1.28,1.69-2.53,2.56-3.79Z" style="fill:#263238"></path></g><g id="freepik--character-3--inject-160"><polygon points="329.85 458.04 396.69 458.04 421.44 315.45 353.04 315.45 329.85 458.04" style="fill:#37474f"></polygon><path d="M353,315.33l0,.2h0c.44,3,4,30.71,13,56.41q.85,2.46,1.75,4.78a55.3,55.3,0,0,1,7,2.68l1.62.74c2.82,1.3,6.31,3.06,10.41,5.4,0,0,0,.27,0,.79q0,.32,0,.75c.1,2.26,4.17,59.41,4.73,70.9h70c-1.08-10.85-2.17-21.51-3.22-31.53-1.46-14-2.84-26.72-4.05-37,0,0,12.09-29.52-10.53-74.11Z" style="fill:#ffc4c0"></path><path d="M389.77,458.06l73.6-.07-7.75-68.55s3.92-10.95,3.92-16.9c0-14-6.13-38.24-14.25-57.21H353s-.45,31.36,10.87,61.3l14.13,5.8Z" style="fill:#37474f"></path><path d="M378,382.43c-.1-.46-1-.47-.94,0,2.88,24.6,12.05,74.61,12.47,75.61a.14.14,0,0,0,.27,0C390.1,457,381.84,401.63,378,382.43Z" style="fill:#263238"></path><path d="M364.27,375.65A147.56,147.56,0,0,1,387.88,387c.3.17.1.64-.22.5-8-3.52-16.06-6.89-23.82-10.86A.54.54,0,0,1,364.27,375.65Z" style="fill:#263238"></path><path d="M440,354.05c-6.36-.65-12.91-.57-18.81-3.48s-9.81-8.78-12.87-14.63a49.23,49.23,0,0,1-4.23-11.47.16.16,0,0,0-.31,0,32.84,32.84,0,0,0,2.6,10.82,48.22,48.22,0,0,0,5,9.59,22.88,22.88,0,0,0,7.27,7,24.58,24.58,0,0,0,9.54,2.95,52.73,52.73,0,0,0,11.78-.07A.38.38,0,0,0,440,354.05Z" style="fill:#263238"></path><path d="M348,350.27c.75-.63,4.31-1.19,7.78-8.17a38.55,38.55,0,0,0,2.92-8.67c.4-1.79,1.69-10.53,1.8-10.57s.08,0,.1.11c.13.61-.68,8.6-1,10.65a33.45,33.45,0,0,1-3,10c-3.33,6.07-7.83,7.63-8.6,7.22C347.85,350.77,347.91,350.35,348,350.27Z" style="fill:#263238"></path><path d="M367.7,321c0-.26.5-.27.47,0-.89,9.08-1.06,17.12-1.09,25.68,0,4,1.08,26,7.85,25.1,1.13-.16,1.8-1.23,2.13-2.94.4-2.05-.12-4.67-.27-6.76-.32-4.63-.49-9.26-.45-13.9A128.37,128.37,0,0,1,379,322.48a.21.21,0,1,1,.42.06c-1.09,11.9-1.87,23.8-1.22,35.76.31,5.74,2.3,14.53-3.52,14.85s-8.42-14.33-8.78-18.31C364.86,343.75,365.86,332,367.7,321Z" style="fill:#263238"></path><path d="M374.7,372.38a36.89,36.89,0,0,1,1.08,4.65,10.7,10.7,0,0,1,.28,3.77.26.26,0,0,1-.47.06,13.68,13.68,0,0,1-1.21-3.76c-.38-1.44-.78-2.88-1.12-4.34A.74.74,0,0,1,374.7,372.38Z" style="fill:#263238"></path><path d="M404.23,142.32c17.82,8,21.67,33.15,20.49,68.9-.17,5.43-46.16,14.88-68.4-1.89-3.59-2.71,1.51-46.44,10.33-59C377.6,134.66,393.19,137.35,404.23,142.32Z" style="fill:#263238"></path><path d="M404.71,142.68c9.33,4.74,15.32,14.17,18,24.07,2,7.22,2.86,14.95,3.7,22.37.8,7.12,1.31,14.46.34,21.59a.2.2,0,0,1-.4,0,185.08,185.08,0,0,0-4.2-40.29c-2.32-11.11-8-21-17.81-27C404,143.14,404.31,142.48,404.71,142.68Z" style="fill:#263238"></path><path d="M359.87,162.57c3.27-11.37,10.59-19.5,21.58-23.17.07,0,.11.1,0,.13-11.89,4.68-18.59,14.09-21.63,26.55-3.31,13.56-4.67,27.32-5.79,41.2a.23.23,0,1,1-.46,0A173.3,173.3,0,0,1,359.87,162.57Z" style="fill:#263238"></path><path d="M360.2,289.47l-3.08,19.42,84.58-.17s-2.43-62.42-26.09-86.62c-11.83-12.1-25.27-10.77-33.59-1.81-2.1,2.26-26,35.87-28.32,49C351.67,280.92,360.2,289.47,360.2,289.47Z" style="fill:#ebebeb"></path><path d="M374.4,283.27a91.5,91.5,0,0,1,13.36,2.32c2.18.58,4.31,1.25,6.44,2,1.06.36,2.13.69,3.21,1a14.87,14.87,0,0,0,3.44.68c.1,0,.1.15,0,.16a19.3,19.3,0,0,1-6.48-.72c-2.21-.56-4.39-1.23-6.6-1.82-4.45-1.18-8.9-2.37-13.42-3.23C374.13,283.6,374.19,283.25,374.4,283.27Z" style="fill:#263238"></path><path d="M363.22,287.17a97.2,97.2,0,0,1,11.19-.44c1.87,0,3.72.18,5.58.38.88.09,1.77.2,2.65.32s1.93.4,2.91.52c.1,0,.1.17,0,.16-.92-.09-1.86,0-2.78-.05L380,288c-1.87-.06-3.73-.1-5.59-.18-3.72-.16-7.44-.28-11.17-.31C363,287.47,363,287.18,363.22,287.17Z" style="fill:#263238"></path><polygon points="353.61 315.94 444.17 315.94 442.76 308 355.02 308 353.61 315.94" style="fill:#263238"></polygon><path d="M383.79,317.72H364.63V306.58h19.16Zm-17.16-2h15.16v-7.14H366.63Z" style="fill:#263238"></path><path d="M400.4,213.29s-5.5,55-5.5,58,5.37,103.3,5.37,103.3L463.37,358l-20.74-57.92s-1.65-41.51-21.94-71.93C414.5,218.87,407.24,213.86,400.4,213.29Z" style="fill:#263238"></path><path d="M400.4,213.29s-5.5,55-5.5,58,5.37,103.3,5.37,103.3L463.37,358l-20.74-57.92s-1.65-41.51-21.94-71.93C414.5,218.87,407.24,213.86,400.4,213.29Z" style="opacity:0.30000000000000004"></path><path d="M394.9,271.26c0,1.31,1.06,22,2.26,44.52l1.12-44.22,12-20.61-11-9.32,8.12-5.69-7-22.64S394.9,268.34,394.9,271.26Z" style="opacity:0.30000000000000004"></path><path d="M382.74,217.17s-24.4,42.22-24.58,51.12c-.28,13.57,3.51,21.51,3.51,21.51l-16.5,76.68-7.48-6.78,21-69.9A29.7,29.7,0,0,1,352.89,271C353.42,256.28,382.74,217.17,382.74,217.17Z" style="fill:#263238"></path><path d="M382.74,217.17s-24.4,42.22-24.58,51.12c-.28,13.57,3.51,21.51,3.51,21.51l-16.5,76.68-7.48-6.78,21-69.9A29.7,29.7,0,0,1,352.89,271C353.42,256.28,382.74,217.17,382.74,217.17Z" style="opacity:0.30000000000000004"></path><path d="M361.67,289.8s-4-16.35-2.45-23.93,23.52-48.7,23.52-48.7l-16.07,20.59,1.42,2.12L358,251.17s-.14,8.61-.14,20.27c0,11,3.23,18.08,3.23,18.08l-4.55,24.24Z" style="fill:#263238"></path><path d="M361.67,289.8s-4-16.35-2.45-23.93,23.52-48.7,23.52-48.7l-16.07,20.59,1.42,2.12L358,251.17s-.14,8.61-.14,20.27c0,11,3.23,18.08,3.23,18.08l-4.55,24.24Z" style="opacity:0.5"></path><path d="M420.63,229.3c18.62,31.37,36.27,88.33,27.77,97.63-9.46,10.37-34.84-29.73-34.19-31.76.48-1.53-3.72-36.77-7.15-62.49S416,221.54,420.63,229.3Z" style="fill:#ffc4c0"></path><path d="M414,295.15c-.2-3.7-6.25-50.29-7.66-64.9-1.26-13.11,2.2-17.5,10.37-7.55,15,18.34,37.57,70,37.3,91.75-.23,18.66-11.35,21.34-23.22,8.11C421,311.74,414,295.15,414,295.15Z" style="fill:#263238"></path><g style="opacity:0.30000000000000004"><path d="M414,295.15c-.2-3.7-6.25-50.29-7.66-64.9-1.26-13.11,2.2-17.5,10.37-7.55,15,18.34,37.57,70,37.3,91.75-.23,18.66-11.35,21.34-23.22,8.11C421,311.74,414,295.15,414,295.15Z"></path></g><path d="M414.72,301.17a448.5,448.5,0,0,1-6.32-52.31,448.5,448.5,0,0,1,6.32,52.31Z" style="fill:#263238"></path><path d="M409.45,259a13.78,13.78,0,0,1-2.25-6.55,18.35,18.35,0,0,1,2.25,6.55Z" style="fill:#263238"></path><path d="M445.24,326.84c-7.94,7-24.39,4.73-66.35,2.87-5.8-.26-15-41.71-8.8-41.76,7.83-.06,38.21,1.42,40.42,1.81C429.14,293,450.63,322.08,445.24,326.84Z" style="fill:#ffc4c0"></path><path d="M376.44,290s-15.31-6.06-24.35-6.76c-12.09-.93-22.92,3.25-27.35,5.27-9.25,4.23-28.69,20.83-24.88,27.27,3.44,5.82,22.46-12.16,22.46-12.16s-22.41,15.14-17,21.39,26.33-15.88,26.33-15.88S309,325.17,315.62,330.73c5,4.2,25.05-14.77,25.05-14.77s-19.4,13.94-14.43,18.48c5.49,5,25.09-11.34,25.09-11.34,14.56,9.42,25.35,7.95,32.9,6C386.06,328.62,376.44,290,376.44,290Z" style="fill:#ffc4c0"></path><path d="M329.74,297.87c-2.7,1.68-5.44,3.37-8,5.29s-5,3.92-7.36,6.06a55.16,55.16,0,0,0-8.35,9.21c4.74-5.68,13.72-12.68,16.26-14.6s5-3.95,7.5-5.86C329.88,297.92,329.8,297.83,329.74,297.87Z" style="fill:#263238"></path><path d="M336.82,306.91c-3.35,2.3-6.76,4.46-10,6.9s-6.09,5-9.15,7.68c-.23.2-.05.26.2.07,3.16-2.53,6.28-4.62,9.47-7.11s6.29-5.1,9.55-7.46C336.94,307,336.87,306.88,336.82,306.91Z" style="fill:#263238"></path><path d="M344.3,313.58a90.72,90.72,0,0,0-14.5,11.72c-.23.21,0,.26.27.06,4.74-4,8.44-7.15,14.34-11.6C344.51,313.69,344.41,313.51,344.3,313.58Z" style="fill:#263238"></path><path d="M378,283.75l17.75,51s48.9.61,54.76-7.43c4.18-5.74-18.72-33.44-39.23-37.74Z" style="fill:#263238"></path><path d="M378,283.75l17.75,51s48.9.61,54.76-7.43c4.18-5.74-18.72-33.44-39.23-37.74Z" style="opacity:0.30000000000000004"></path><path d="M407,330.54c-1.58-5.6-3.44-11.08-5.32-16.55s-3.74-11-5.74-16.38c-1.14-3.06-2.25-6.13-3.48-9.13,0-.08-.17,0-.14,0,1.57,5.6,3.41,11.09,5.25,16.57s3.74,11,5.69,16.41c1.09,3.08,2.24,6.13,3.48,9.14C406.77,330.8,407,330.71,407,330.54Z" style="fill:#263238"></path><path d="M379.54,288.15q-.94-2.31-1.84-4.64c5.74.68,11.44,1.58,17.15,2.45,7.66,1.45,15.57,2.19,22.93,4.89a55.13,55.13,0,0,1,9.29,5.34c4.6,3.29,9.21,6.8,12.67,11.31-3.88-4.09-8.58-7.32-13.27-10.39s-9.68-5.76-15.22-6.64c-5.51-1.15-11.08-2.18-16.63-3.24S383.52,285.11,378,284l.22-.27c.46,1.49.91,3,1.34,4.47Z" style="fill:#263238"></path><path d="M393.78,329.08c.78,1.86,1.51,3.74,2.25,5.62l-.26-.19c14.45-.22,29-.22,43.31-2.7A44.61,44.61,0,0,0,446,330c2.19-.84,4.53-2,5.62-4.16-1.91,4.5-8,5.89-12.33,7.08-14.28,3.11-29,3.08-43.56,2.19l-.2,0c-.6-2-1.21-4-1.77-6Z" style="fill:#263238"></path><path d="M399.83,216.58c-.45,1.87-9.54,14-18.13,13.5-2.79-.16-2.59-13.46-2.59-13.46l-.24-1.58-3.39-15.86,18.71-11.76,2.7-1.55s.64,4.4,1.39,9.89c0,.25.07.51.1.78s.1.6.14.89c.12.82.24,1.66.34,2.49.08.64.16,1.26.22,1.93s.14,1.32.22,2A82.91,82.91,0,0,1,399.83,216.58Z" style="fill:#ffc4c0"></path><path d="M398.28,195.76A32.58,32.58,0,0,1,378.87,215l-3.39-15.86,18.71-11.76,2.7-1.55S397.53,190.27,398.28,195.76Z" style="fill:#263238"></path><path d="M399.58,217.17c-1.39,5.77-25.3,46.44-26.88,44.79s6.67-39.53,6.67-39.53Z" style="fill:#ffc4c0"></path><path d="M354,174c-2.52,28.36,14.18,33.06,20.3,33.6,5.55.49,24.51,1.44,29.94-26.51s-7-38.07-19.59-39.86S356.54,145.61,354,174Z" style="fill:#ffc4c0"></path><path d="M359.07,168c.67,0,1.29-.16,1.95-.25a3.17,3.17,0,0,0,1.94-.63,1,1,0,0,0,.1-1.23,2.51,2.51,0,0,0-2.42-.79,3.67,3.67,0,0,0-2.41,1.11A1.08,1.08,0,0,0,359.07,168Z" style="fill:#263238"></path><path d="M378.46,169.52c-.65-.15-1.23-.4-1.87-.61a3.18,3.18,0,0,1-1.78-1,1,1,0,0,1,.13-1.23,2.48,2.48,0,0,1,2.52-.32,3.67,3.67,0,0,1,2.17,1.54A1.08,1.08,0,0,1,378.46,169.52Z" style="fill:#263238"></path><path d="M373.81,175.84c0-.07.14.1.13.18-.27,1.92-.25,4.17,1.43,5,.05,0,0,.13,0,.11C373.24,180.59,373.25,177.61,373.81,175.84Z" style="fill:#263238"></path><path d="M375.74,174c3.13.09,2.71,6.34-.18,6.25S373.13,173.93,375.74,174Z" style="fill:#263238"></path><path d="M377,174.42c.52.39,1,1.05,1.67,1.16s1.37-.49,1.91-1.09c.05-.06.1,0,.1.08-.06,1.2-.6,2.4-1.9,2.49s-2-1-2.17-2.25C376.52,174.58,376.74,174.26,377,174.42Z" style="fill:#263238"></path><path d="M362.2,174.84c0-.08-.15.08-.16.16-.05,1.94-.44,4.15-2.23,4.69-.05,0-.05.11,0,.11C362,179.62,362.46,176.68,362.2,174.84Z" style="fill:#263238"></path><path d="M360.59,172.72c-3.09-.42-3.71,5.8-.84,6.19S363.19,173.07,360.59,172.72Z" style="fill:#263238"></path><path d="M359.26,173c-.53.28-1.07.83-1.67.81s-1.12-.74-1.49-1.43c0-.07-.09,0-.1.06-.15,1.18.12,2.46,1.24,2.8s1.89-.63,2.29-1.79C359.6,173.24,359.47,172.88,359.26,173Z" style="fill:#263238"></path><path d="M372.42,192.68c-.45.47-.89,1.11-1.59,1.19a5.05,5.05,0,0,1-2.1-.42.07.07,0,0,0-.08.1,2.59,2.59,0,0,0,2.49,1,2.07,2.07,0,0,0,1.47-1.76C372.63,192.65,372.48,192.61,372.42,192.68Z" style="fill:#263238"></path><path d="M364.46,184.78s-.5,3.34-.54,4.7c0,.13,4.75.48,7.24-2.48.11-.13-.07-.28-.2-.2a9.82,9.82,0,0,1-5.93,1.7c-.09-.38.93-5.05.72-5.07a11.8,11.8,0,0,0-3.12.62c.81-6,2.57-11.89,3.28-17.92,0-.21-.29-.28-.35-.09-2.29,6-3.37,12.93-4.36,19.15C361.07,186,363.91,185,364.46,184.78Z" style="fill:#263238"></path><path d="M365.06,189.12a7.9,7.9,0,0,0,3.11,2.55,3.62,3.62,0,0,0,2.17.2c1.58-.37,1.66-1.81,1.4-3.05a8.35,8.35,0,0,0-.65-1.91A10.31,10.31,0,0,1,365.06,189.12Z" style="fill:#263238"></path><path d="M368.17,191.67a3.62,3.62,0,0,0,2.17.2c1.58-.37,1.66-1.81,1.4-3.05C370.06,189,368.36,190,368.17,191.67Z" style="fill:#ff98b9"></path><path d="M403.19,181.78c-4.7.2-5.43-9.67-5.43-9.67s-9.53-.31-12.2-14.12a21.1,21.1,0,0,0,3.82,11.48s-16.73-2.37-23.32-16.68c0,0,2.57,7.26,5.13,9.9,0,0-7-2.21-10.21-8.05,0,0-3.23,8-5.57,10.17,0,0-.75-36,33.22-24.71,0,0,14.18,1.31,19.83,15S403.19,181.78,403.19,181.78Z" style="fill:#263238"></path><path d="M399.57,182.83s6.23-8.87,10.26-6.65-.67,15.09-5.41,16.85a4.81,4.81,0,0,1-6.44-2.6Z" style="fill:#ffc4c0"></path><path d="M408.39,179.84a.06.06,0,0,1,0,.12c-3.33,1.34-5.08,4.41-6.31,7.6,1-1.22,2.34-1.89,4-.72.09.07,0,.2-.09.18a3,3,0,0,0-3.26,1,14.51,14.51,0,0,0-1.57,2.63c-.15.3-.69.14-.57-.2a.24.24,0,0,1,0-.08C400.55,186.17,403.85,180.25,408.39,179.84Z" style="fill:#263238"></path></g><g id="freepik--character-1--inject-160"><path d="M92.36,458h76.9L141,306.26H71.91S92.24,457.36,92.36,458Z" style="fill:#d3766a"></path><polygon points="136.4 306.26 117.41 458.07 92.36 457.99 71.91 306.26 136.4 306.26" style="opacity:0.1"></polygon><path d="M40.21,458h67.73l7.36-95c.84-.46,15.46-6.77,15.46-6.77.78-2,9.77-47.54,10.23-49.92a.65.65,0,0,1,0-.1l-82.43.1s-18.68,38.46-9.73,69.38C49.37,377.45,44.41,420.17,40.21,458Z" style="fill:#d3766a"></path><path d="M58.58,306.26s-13.13,29.05-13.35,47.22,1.33,22.87,1.33,22.87l-6.35,71.58s52.24,3.1,73.74,2,54.1-5.76,54.1-5.76L141,306.26Z" style="fill:#263238"></path><g style="opacity:0.1"><path d="M111.05,383.86a99.19,99.19,0,0,1,11.64-22.93c3.56-4.78,8.52-8.38,13.71-11.17-4,3.53-8.12,7-11.37,11.21-5.06,7.34-9.21,15.33-14,22.89Z"></path><path d="M122.21,369.5a18.55,18.55,0,0,1,4.75-6.64,16.33,16.33,0,0,1,7.1-4.06c-.95,1-1.92,1.93-2.88,2.84a101.5,101.5,0,0,1-9,7.86Z"></path></g><path d="M65.4,231.71a4.22,4.22,0,0,0,2,3.91A31.88,31.88,0,0,0,71,237.68a127,127,0,0,1,.62-13c.39-5,1.11-9.84,1.94-14.74a.06.06,0,0,1,.12,0c-.48,5-.78,10-1.12,15-.3,4.37-.26,8.81-.59,13.18,1.27.58,2.57,1.11,3.87,1.59,0-1.53,0-3.06,0-4.59.08-4.61.56-9.14.88-13.73a.08.08,0,1,1,.16,0c-.25,4.46-.11,9-.13,13.47,0,1.72,0,3.45,0,5.17.9.31,1.79.6,2.68.87.59.18,1.18.35,1.77.5.09-3,.34-6.05.5-9,.26-4.77.82-9.52,1.16-14.29,0-.16.25-.16.24,0-.3,4.76-.29,9.55-.49,14.31-.12,3.06-.11,6.19-.26,9.3a72.23,72.23,0,0,0,24.34,1.56,107.74,107.74,0,0,0,14-2.33c1.11-.25,4-1,6.77-1.77,0-1.44.14-2.88.17-4.28.07-3.18.32-6.38.31-9.56a.06.06,0,1,1,.12,0c.13,3.2.44,6.37.46,9.57,0,1.29,0,2.62,0,4l2.82-.81c-.23-6,.25-12.13.37-18.12a.1.1,0,1,1,.19,0c.16,5.89.67,11.86.51,17.78a10.42,10.42,0,0,0,1.87-.69c1.4-1.07.81-24.87.81-30.42,0-10.34.84-43-2.1-53a30.51,30.51,0,0,0-17.23-20.16c-4.08-1.82-8.89-1.62-13.27-1.55a26.91,26.91,0,0,0-12.93,3.68c-3.79,2.11-7.35,4.6-9.9,8.4A54.44,54.44,0,0,0,74,156.71a106.49,106.49,0,0,0-3.72,14.46c-1.92,10.05-3.17,42.18-4.11,52.37C65.88,226.25,65.48,229,65.4,231.71Z" style="fill:#263238"></path><path d="M125.53,215.5c31.22,31.4,52.55,53.5,54,70.18,2.05,23.08-8.75,23.13-15.07,22.85-17.19-.77-40.91-54.63-50.32-81.82C105,200.32,118.67,208.61,125.53,215.5Z" style="fill:#263238"></path><path d="M112.33,203.83,191.43,305l-48,17.58-28.12-37.2s-22.13-38.65-22.54-39.85S112.33,203.83,112.33,203.83Z" style="opacity:0.1"></path><path d="M56,307.72l89.41-1.83-2.5-29.1s6.1-7.58,5.61-14.29c-1-14-27.16-49.71-29.08-51.42-7.72-6.86-20.06-7-25.9-1.72C62.16,237.93,55.57,312.88,56,307.72Z" style="fill:#263238"></path><path d="M114.56,272.27a72,72,0,0,1,13.07,1.05c2.16.41,4.3.95,6.44,1.54,1.07.29,2.14.54,3.21.79a11.42,11.42,0,0,0,3.38.36c.1,0,.12.18,0,.2a18.62,18.62,0,0,1-3.17.32,18.15,18.15,0,0,1-3.1-.34c-2.19-.39-4.38-.91-6.57-1.32-4.42-.85-8.84-1.69-13.28-2.14C114.36,272.71,114.35,272.27,114.56,272.27Z" style="fill:#263238"></path><path d="M104.59,278.41a75.56,75.56,0,0,1,10.54-2,50.68,50.68,0,0,1,5.37-.27c.85,0,1.71,0,2.57,0s1.9.23,2.84.24c.1,0,.13.2,0,.2-.89,0-1.77.22-2.66.31l-2.66.24c-1.78.17-3.56.36-5.34.51-3.56.29-7.1.63-10.65,1.08C104.44,278.81,104.41,278.46,104.59,278.41Z" style="fill:#263238"></path><path d="M89,213.27c-29.28,28-54.82,70.83-52.72,94.91C38.4,332,46.45,328.85,48.78,328.47,63,326.14,88.89,259.91,96.67,232,103.76,206.52,96.28,206.35,89,213.27Z" style="fill:#263238"></path><path d="M66.06,308.07c1.37-3.16,2.79-6.28,4.12-9.46l4.07-9.46c2.68-6.32,5.41-12.62,8-19S87.5,257.48,90,251.1q1.92-4.77,3.71-9.6c1.26-3.2,2.36-6.44,3.5-9.69a184.16,184.16,0,0,1-6,19.75c-2.3,6.49-4.88,12.87-7.46,19.24s-5.43,12.65-8.37,18.87S69.45,302.08,66.06,308.07Z" style="fill:#263238"></path><path d="M94.67,240.1a29.91,29.91,0,0,1,1.66-3.3c.31-.52.6-1.05.93-1.56s.64-1,1-1.55a9.18,9.18,0,0,1-1.23,3.53A10.26,10.26,0,0,1,94.67,240.1Z" style="fill:#263238"></path><path d="M98.56,211c.64,1.78,10.68,12.66,19,11.33,2.7-.44,1-15.3,1-15.3l.13-1.13,1.71-15.76L101,180.52l-2.78-1.24s-.18,4.35-.36,9.76c0,.25,0,.5,0,.77s0,.6,0,.88c0,.81-.07,1.64-.09,2.46,0,.63,0,1.23,0,1.89s0,1.3,0,2A103.66,103.66,0,0,0,98.56,211Z" style="fill:#d3766a"></path><path d="M97.85,189a31.79,31.79,0,0,0,20.8,16.82l1.71-15.76L101,180.52l-2.78-1.24S98,183.63,97.85,189Z" style="fill:#263238"></path><path d="M137.91,161.16c9.14,26.29-5.57,34.74-11.24,36.71-5.15,1.78-22.91,7.2-34.73-18S89.46,142.1,101,137.39,128.76,134.87,137.91,161.16Z" style="fill:#d3766a"></path><path d="M132,157.63c-.66.1-1.29.08-2,.12a3.14,3.14,0,0,1-2-.26,1,1,0,0,1-.33-1.19,2.56,2.56,0,0,1,2.23-1.23,3.69,3.69,0,0,1,2.58.64A1.08,1.08,0,0,1,132,157.63Z" style="fill:#263238"></path><path d="M113.51,162.34a19.08,19.08,0,0,0,1.74-.9,3.19,3.19,0,0,0,1.6-1.26,1,1,0,0,0-.33-1.2,2.52,2.52,0,0,0-2.54.1A3.71,3.71,0,0,0,112.1,161,1.08,1.08,0,0,0,113.51,162.34Z" style="fill:#263238"></path><path d="M124.34,183.53a2.91,2.91,0,0,0,1.84.74,5.06,5.06,0,0,0,1.92-.94.07.07,0,0,1,.11.07,2.63,2.63,0,0,1-2.16,1.59,2.06,2.06,0,0,1-1.87-1.33C124.12,183.56,124.26,183.48,124.34,183.53Z" style="fill:#263238"></path><path d="M130,173.85s1.34,3.09,1.73,4.4c0,.12-4.46,1.69-7.63-.53-.14-.09,0-.28.14-.24a9.7,9.7,0,0,0,6.16.11c0-.39-2.2-4.64-2-4.72a11.9,11.9,0,0,1,3.17-.2c-2.33-5.62-5.55-10.82-7.79-16.46a.19.19,0,0,1,.32-.18c3.76,5.21,6.58,11.62,9.15,17.37C133.56,174.11,130.58,173.92,130,173.85Z" style="fill:#263238"></path><path d="M130.53,178.2a8,8,0,0,1-2.35,3.27,3.59,3.59,0,0,1-2,.74c-1.62.06-2.07-1.31-2.15-2.58a8.76,8.76,0,0,1,.14-2A10.27,10.27,0,0,0,130.53,178.2Z" style="fill:#263238"></path><path d="M128.18,181.47a3.59,3.59,0,0,1-2,.74c-1.62.06-2.07-1.31-2.15-2.58C125.66,179.32,127.58,179.94,128.18,181.47Z" style="fill:#ff98b9"></path><path d="M116.12,169.45a2,2,0,0,1-.31.58,1.19,1.19,0,0,1-.89.51c-1.1.11-1.79-.91-2.08-2,0-.08,0-.14.06-.09.57.47,1.21.94,1.81.71.41-.15.66-.59.93-1A5.47,5.47,0,0,0,116.12,169.45Z" style="fill:#263238"></path><path d="M115.51,169.28a2.75,2.75,0,0,1,.26-1.49,2,2,0,0,1,1.29-1,1.82,1.82,0,0,1,1.61.38,3.27,3.27,0,0,1,.88,1.21,6.5,6.5,0,0,1,.28.85,4,4,0,0,1,0,1.86,5.88,5.88,0,0,0-.4-1.29,8.54,8.54,0,0,0-.55-1.09c-.45-.71-1.06-1.24-1.66-1s-1,.79-1.06,1.63a13.68,13.68,0,0,0,.14,2.6A6,6,0,0,1,115.51,169.28Z" style="fill:#263238"></path><path d="M133.58,163.78a1.79,1.79,0,0,0,.55.36,1.2,1.2,0,0,0,1,0c1-.43,1.12-1.66.86-2.75,0-.08-.07-.11-.1,0-.27.68-.61,1.4-1.24,1.49a2.25,2.25,0,0,1-1.29-.42A5.7,5.7,0,0,1,133.58,163.78Z" style="fill:#263238"></path><path d="M134,163.34a2.8,2.8,0,0,0-.95-1.18,2,2,0,0,0-1.62-.27,1.85,1.85,0,0,0-1.23,1.11,3.21,3.21,0,0,0-.18,1.48,6.37,6.37,0,0,0,.17.89,3.94,3.94,0,0,0,.85,1.65,5.74,5.74,0,0,1-.28-1.33,10.08,10.08,0,0,1,0-1.22c.05-.83.33-1.59.95-1.71s1.26.22,1.72.92a13.32,13.32,0,0,1,1.12,2.34A5.72,5.72,0,0,0,134,163.34Z" style="fill:#263238"></path><path d="M93.62,178.42c5.6-1.53,2.49-14.47,2.49-14.47s9-4.25,11.29-11.74c0,0-1.17,6.28-4.29,9.55-.53.55,18.27-6.43,16.23-21.7,0,0,6.65,13.86,16.23,14.55.46,0-4.76-13-8.41-15.34A29,29,0,0,0,120.4,136a28.58,28.58,0,0,0-21.62,0c-11.4,4.82-15.91,19.3-15.47,24.64C84.16,171.16,91,179.15,93.62,178.42Z" style="fill:#263238"></path><path d="M103.81,161.92c10.4-3.21,17-12.11,15.09-23.09a.25.25,0,0,1,.47-.13c4.27,10.54-5.43,21.61-15.61,23.43C103.51,162.18,103.56,162,103.81,161.92Z" style="fill:#263238"></path><path d="M93.48,177.82c4.94-4.42,4.35-10.39,3.26-16.32,0-.17.26-.25.31-.08,1.58,5.69,2.36,13-3.24,16.82A.27.27,0,0,1,93.48,177.82Z" style="fill:#263238"></path><path d="M118.85,137.82a.06.06,0,0,1,.11,0c2.86,5.69,5.77,15.79,13.89,15.3a.17.17,0,0,1,0,.33C125.14,154.59,119.66,144.26,118.85,137.82Z" style="fill:#263238"></path><path d="M98.09,178.6s-8-6.93-11.31-3.86S91,188.9,95.92,189.43a4.71,4.71,0,0,0,5.5-4Z" style="fill:#d3766a"></path><path d="M89,177.87a.06.06,0,0,0,0,.12c3.47.48,5.86,3,7.79,5.71-1.23-.93-2.66-1.24-3.94.27-.07.08,0,.18.13.14a2.89,2.89,0,0,1,3.33.2,13.71,13.71,0,0,1,2.12,2.12c.21.25.68,0,.5-.33l0-.06C98,182,93.42,177.18,89,177.87Z" style="fill:#263238"></path><path d="M118.64,207.07l-5.18,12.25L97.84,204.81l-4.44,4.93s15.12,23.7,15.24,22.58l5.28-10.54,7.2,7.53-.26-18.59Z" style="fill:#ebebeb"></path><path d="M121.52,220.12c-.15-3.07-.21-6.17-.5-9.23,0-.1-.18-.16-.21,0-.66,2.95,0,14.68-.11,17.49l0,0c-.3-.33-6.69-6.64-6.75-6.54-1.14,1.67-5,9.35-5.28,10.05-2.3-4-12.65-18.33-15.4-22.11a.11.11,0,0,0-.18.11c2,4.2,15.22,23.56,15.41,23.51A119.53,119.53,0,0,0,114,222.19c1.08,1.36,7.51,8.47,7.54,8A97,97,0,0,0,121.52,220.12Z" style="fill:#263238"></path><path d="M155.81,303.13c-7.68-8.35.53-28.55,11.79-62.18,2-5.9,45.5-13.52,45.17-6.88-.41,8.37-13.84,45.75-19.25,54.49C182.87,305.78,164.77,312.88,155.81,303.13Z" style="fill:#d3766a"></path><path d="M206.35,256.38c4.78-10.49,10.59-25.67,8.93-30.68-1.74-5.25-8.6-23.47-11.56-27.19s-15.79-20.89-20-21.06c-3.4-.14-4.61,8.27,1.46,16.51,5.32,7.25,7.33,12.12,8.8,14.28s2.22,12-1,14.13c-1.9,1.23-8.27.06-10.51-3.36s.93-10.16-.81-15.39-8.31-8.9-9.77-7.42.14,3.62-.31,11.51c-.29,5.07-5.86,14.16-5.21,23.62.33,4.75-.8,16.06-.8,16.06Z" style="fill:#d3766a"></path><path d="M179.94,198.83a7.44,7.44,0,0,1-2.25-3.43,3.13,3.13,0,0,1,.1-1.74,3.24,3.24,0,0,1,.49-.82c.19-.22.49-.55.8-.57a.05.05,0,1,0,0-.1,3.39,3.39,0,0,1-.53.2,1.55,1.55,0,0,0-.41.25,2.38,2.38,0,0,0-.64.7,3.1,3.1,0,0,0-.39,2,5.15,5.15,0,0,0,2.79,3.6A.06.06,0,0,0,179.94,198.83Z" style="fill:#263238"></path><rect x="189.24" y="158.09" width="0.73" height="33.88" transform="translate(138.24 -77.85) rotate(35.81)" style="fill:#263238"></rect><rect x="189.24" y="158.09" width="0.73" height="33.88" transform="translate(138.24 -77.85) rotate(35.81)" style="opacity:0.5"></rect><path d="M187.74,183.45a3.44,3.44,0,1,1-.49-5.15A3.67,3.67,0,0,1,187.74,183.45Z" style="fill:#263238"></path><rect x="192.64" y="159.18" width="0.73" height="22.26" transform="translate(136.13 -80.73) rotate(35.81)" style="fill:#263238"></rect><rect x="192.64" y="159.18" width="0.73" height="22.26" transform="translate(136.13 -80.73) rotate(35.81)" style="opacity:0.5"></rect><g style="opacity:0.6000000000000001"><g style="opacity:0.5"><path d="M194.43,227.88l-33.3.05s.71-1.4,1.6-1.71,4.34-.28,7.73-1.18,5.64-4,5.77-5.17c.09-.88-.75-22.73-1.87-24.11-2.16-2.68-24.91-26.27-24.91-26.27l56.48-.08s-22.68,23.65-24.83,26.34c-1.11,1.39-1.89,23.23-1.79,24.12.12,1.2,2.39,4.27,5.78,5.15s6.84.85,7.73,1.15S194.43,227.88,194.43,227.88Z" style="fill:#ebebeb"></path><path d="M194.43,227.88l-33.3.18h-.21a3.77,3.77,0,0,1,1.84-2,21.48,21.48,0,0,1,2.46-.31c3.18-.34,6.68-.66,9-3.08a5.5,5.5,0,0,0,1.84-3c-.06-3.68-.26-7.37-.46-11a103.67,103.67,0,0,0-1.19-12.2,1.74,1.74,0,0,0-.56-1c-2.56-2.9-8.24-8.78-10.94-11.65l-13.65-14.18-.38-.39h.55l56.48,0h.45l-.31.32-13.6,14.22-6.76,7.15c-.93,1-3.73,4-4.53,5a12.46,12.46,0,0,0-.58,2.94c-.69,6.52-1,13.08-1.21,19.63a4.13,4.13,0,0,0,.34,2.35c2.07,3.83,6.6,4.73,10.59,5a20.35,20.35,0,0,1,2.44.31,3.51,3.51,0,0,1,1.67,1.73Zm0,0a3.56,3.56,0,0,0-1.68-1.72,22,22,0,0,0-2.44-.29c-4-.25-8.59-1.13-10.7-5a4.09,4.09,0,0,1-.37-2.42c.28-7.37.29-14.81,1.48-22.11.15-.83.93-1.4,1.44-2l3.33-3.62,6.74-7.17,13.57-14.27c1.17.81-56.54.22-56.35.45l.17-.39,13.61,14.22c2.28,2.41,8,8.4,10.1,10.76.42.48.85.9,1.23,1.42a12.05,12.05,0,0,1,.63,3.08c.7,6.54,1,13.09,1.18,19.66a4.16,4.16,0,0,1-.38,2.46,9.29,9.29,0,0,1-5.86,4.34c-2.38.63-4.9.65-7.29,1a3.47,3.47,0,0,0-1.6,1.67l-.11-.19,33.3.08Z" style="fill:#263238"></path></g><path d="M202.67,169.58c-3.25,3.47-18.8,20.08-20.57,21.86-2,2-3.48,2.6-4.37,2.61s-2.36-.58-4.38-2.6c-1.78-1.77-17.42-18.33-20.68-21.8Z" style="fill:#c7c7c7;opacity:0.6000000000000001"></path><path d="M194.14,178.7c-5,5.33-10.91,11.61-12,12.74-2,2-3.48,2.6-4.37,2.61s-2.36-.58-4.38-2.6c-1.13-1.12-7.06-7.39-12.08-12.7Z" style="fill:#263238"></path></g><rect x="173.64" y="187.24" width="1" height="4.92" transform="translate(-82.63 170.17) rotate(-43.1)" style="fill:#fff"></rect><rect x="162.41" y="166.5" width="1" height="22.4" transform="translate(-77.45 159.23) rotate(-43.09)" style="fill:#fff"></rect><rect x="176.57" y="196.52" width="1" height="22.32" transform="translate(-8.76 7.8) rotate(-2.46)" style="fill:#fff"></rect><path d="M214.53,222.28c0-6.75-1.59-17-7.46-24.9-4-5.35-27.63-8-29.29-4.24s1.41,5.76,6.32,8.12c1.79.86,12.61,3.29,12.93,6.09a88,88,0,0,1,.09,11.16l13.27-.55Z" style="fill:#d3766a"></path><path d="M179.08,192.08c4.58-2.28,10.74-1.14,16.61.4.09,0,.06.17,0,.15-1.5-.39-11.78-1.79-16.56-.46C179,192.18,179,192.1,179.08,192.08Z" style="fill:#263238"></path><path d="M215,220.75a39.79,39.79,0,0,0-7.89-23.37c-4-5.35-25.42-3.17-27.08.62s2.59,6.88,8.57,8.28c1.94.46,9.62.09,9.95,2.89.47,4,1.09,9.79,1.09,9.79l11.57,1Z" style="fill:#d3766a"></path><path d="M199.61,217.12c0-1.07,0-1.44,0-2.52s-.07-2.13-.18-3.2a8.17,8.17,0,0,0-.53-2.73,4.09,4.09,0,0,0-1.9-1.8c-1.8-.93-4-.82-6-.91-2.2-.1-6.49-.72-8.87-2.62a6,6,0,0,1-1.68-1.83,3.76,3.76,0,0,1-.59-1.73c.09-2.58,2.83-3.85,5.22-4.47,4.43-1.16,9.29-1,13.81-.46,1.11.12,2.21.28,3.32.43a9,9,0,0,1,3.66,1.08c1.78,1.11,3.55,4.77,4.11,5.89,0,.08.16,0,.12-.08-.66-1.38-2-5.31-4.92-7a10.59,10.59,0,0,0-3.62-.9c-1.27-.2-2.55-.36-3.83-.49a47.23,47.23,0,0,0-7.52-.24,20,20,0,0,0-7.15,1.38,5.92,5.92,0,0,0-3.56,4.92c0,1.8,1.43,3.17,2.13,3.76a10.32,10.32,0,0,0,2.28,1.41,41.67,41.67,0,0,0,5.82,1.69c1.95.37,4,.21,5.92.74a3.59,3.59,0,0,1,2.23,1.63,9.4,9.4,0,0,1,.72,2.68,28.32,28.32,0,0,1,.72,5.27C199.31,217.53,199.62,217.57,199.61,217.12Z" style="fill:#263238"></path><path d="M215.33,229.28c.33-3,4-11.58,4-15.63s-1.94-19.33-6.1-21.37c-5.22-2.55-5.72,9.47-5.47,14.72s-4.08,11.12-4.08,11.12l9.8,1.4Z" style="fill:#d3766a"></path><path d="M208,198.73c.18,1.72.18,3.5.19,5.24a34.34,34.34,0,0,1-.1,5,15.09,15.09,0,0,1-1.6,4.62c-.37.72-.78,1.41-1.21,2.1s-1,1.45-1.46,2.21c-.05.08-.18,0-.13-.07a38.72,38.72,0,0,0,2-4.38,21.08,21.08,0,0,0,1.34-4.81c.48-3.28.26-6.62.71-9.9C207.81,198.58,208,198.61,208,198.73Z" style="fill:#263238"></path><path d="M203,219.11c-2.81,4.75-8.09,7.68-13.15,9.51a27.41,27.41,0,0,0-13.07,9.12,23.26,23.26,0,0,1,12.73-10.05c5-1.85,10.06-4.38,13.49-8.58Z" style="fill:#263238"></path><path d="M163.62,247.53l42.7,15.83-3.46,11c-1.24,2.34-.17,7.8-1.8,10.47-5.84,9.57-16.55,17.37-26,21.77-9.2,4.31-19.82,2.23-22.28-9.36C149.79,283,163.62,247.53,163.62,247.53Z" style="fill:#263238"></path><path d="M153.33,283.33c1.76-12.3,4.77-24.62,10.28-35.8-4.17,11.5-7.22,23.92-10.28,35.8Z" style="fill:#263238"></path><path d="M162.77,260.54c2.49.62,4.95,1.46,7.4,2.22s4.9,1.56,7.34,2.38c4.88,1.65,9.74,3.32,14.59,5.05,1.32.48,2.64.95,4,1.45s2.75,1.24,4.16,1.76a.09.09,0,0,1-.06.18c-1.2-.39-2.46-.6-3.67-1s-2.51-.77-3.76-1.17c-2.44-.8-4.89-1.61-7.33-2.43-4.87-1.63-9.74-3.3-14.56-5.09-2.72-1-5.5-2-8.16-3.14A.13.13,0,0,1,162.77,260.54Z" style="fill:#263238"></path><path d="M43.53,327.38c8.38,6.76,24,6.52,66.57,2.74,5.89-.52,13.38-43,7.06-42.81-8,.3-38.74,3.17-41,3.66C57.42,295.14,37.84,322.79,43.53,327.38Z" style="fill:#d3766a"></path><path d="M100.33,291.4s15.52-6.74,24.77-7.76c12.39-1.36,23.64,2.57,28.26,4.5,9.64,4,30.16,20.43,26.46,27.17-3.34,6.09-23.47-11.74-23.47-11.74S179.87,318.36,174.5,325s-27.56-15.42-27.56-15.42,23.82,15.74,17.2,21.67c-5,4.48-26.22-14.34-26.22-14.34s20.39,13.67,15.44,18.5c-5.47,5.34-26.14-10.8-26.14-10.8-14.64,10.16-26,8.68-33.79,6.92C91.54,331.06,100.33,291.4,100.33,291.4Z" style="fill:#d3766a"></path><path d="M148.55,297.94c2.82,1.63,5.69,3.27,8.36,5.16s5.28,3.86,7.76,6a56.34,56.34,0,0,1,8.88,9.18c-5.05-5.68-14.51-12.57-17.18-14.45s-5.23-3.89-7.9-5.77C148.4,298,148.48,297.9,148.55,297.94Z" style="fill:#263238"></path><path d="M141.57,307.46c3.52,2.24,7.09,4.34,10.51,6.75s6.43,5,9.65,7.57c.25.21.06.27-.2.08-3.33-2.49-6.6-4.53-10-7s-6.62-5-10.06-7.34C141.46,307.5,141.52,307.42,141.57,307.46Z" style="fill:#263238"></path><path d="M134.12,314.55c5.55,3.16,10.51,7.34,15.28,11.55.24.21,0,.27-.27.07-5-3.93-8.91-7.06-15.12-11.43C133.91,314.67,134,314.48,134.12,314.55Z" style="fill:#263238"></path><path d="M103.15,286.7l-13.9,49.43s-3.72,0-10.18-.41c0,0-8.22,3-11.73,2.61-11.19-1.22-23-7.63-25-12.2-4-9,15.93-30.23,29.36-34.87C77.3,289.33,103.15,286.7,103.15,286.7Z" style="fill:#263238"></path><path d="M102.69,288.35l.38-1.67.09.11c-4.4.63-8.8,1.24-13.18,1.92s-8.77,1.33-13.1,2.22a49.89,49.89,0,0,0-6.37,1.61,39.05,39.05,0,0,0-6,2.75,42.07,42.07,0,0,0-10.17,8.38,34.77,34.77,0,0,1,9.69-9.18,31.52,31.52,0,0,1,6-3,52.73,52.73,0,0,1,6.51-1.76c4.39-.87,8.8-1.49,13.21-2s8.86-.87,13.3-1.08h.13l0,.12Z" style="fill:#263238"></path><path d="M90,293.11c-.54,2.51-1.3,5-2,7.47s-1.4,4.95-2.15,7.41q-2.23,7.38-4.59,14.73c-.43,1.34-.87,2.68-1.32,4s-1.16,2.79-1.63,4.22a.09.09,0,0,1-.18-.06c.35-1.21.52-2.48.84-3.7s.69-2.53,1.06-3.79q1.08-3.7,2.19-7.4c1.49-4.92,3-9.85,4.64-14.72.93-2.75,1.79-5.56,2.88-8.25A.13.13,0,0,1,90,293.11Z" style="fill:#263238"></path></g><g id="freepik--Floor--inject-160"><path d="M35.24,458.07c137.59-.61,291.93-.62,429.52,0-137.59.62-291.93.61-429.52,0Z" style="fill:#263238"></path></g><g id="freepik--Table--inject-160"><rect x="91.44" y="334.24" width="317.11" height="7.93" style="fill:#263238"></rect><rect x="91.44" y="334.24" width="317.11" height="7.93" style="opacity:0.4"></rect><rect x="113.52" y="342.17" width="272.95" height="22.19" style="fill:#263238"></rect><rect x="113.52" y="342.17" width="272.95" height="22.19" style="opacity:0.4"></rect><polygon points="386.48 345.67 113.52 349.76 113.52 342.17 386.48 342.17 386.48 345.67" style="opacity:0.2"></polygon><polygon points="269.96 458.16 230.03 458.16 220.03 364.36 279.96 364.36 269.96 458.16" style="fill:#263238"></polygon><polygon points="269.96 458.16 230.03 458.16 220.03 364.36 279.96 364.36 269.96 458.16" style="opacity:0.4"></polygon><polygon points="279.53 368.46 221 373.36 220.03 364.36 279.96 364.36 279.53 368.46" style="opacity:0.2"></polygon></g><g id="freepik--Drinks--inject-160"><path d="M362.61,308.74a12.67,12.67,0,0,0,2.79-4.42A12.75,12.75,0,0,0,344.21,291l.72.69,8,7.74,0,0,.38.37h0l0,0h0l0,0v0l.61.58,7.81,7.53Z" style="fill:#263238"></path><path d="M361.88,308.05a11.64,11.64,0,0,0,2.58-4.08,11.75,11.75,0,0,0-19.53-12.26l8,7.74,0,0,.38.37h0l0,0h0l0,0v0l.61.58Z" style="fill:#fff;opacity:0.5"></path><path d="M353.36,299.84h.09l-.47-.37Z" style="fill:#263238"></path><path d="M346.89,292.4c.4.69,6.56,7.44,6.56,7.44s-1-9.11-1.25-9.87-1.92-.64-3.23-.05S346.49,291.7,346.89,292.4Z" style="fill:#263238;opacity:0.5"></path><path d="M354.08,289.9c-.21.78-.63,9.94-.63,9.94s5.72-7.17,6.08-7.89-.91-1.82-2.25-2.32S354.28,289.13,354.08,289.9Z" style="fill:#263238;opacity:0.5"></path><path d="M360.89,293.24c-.69.4-7.44,6.6-7.44,6.6s9.09-1,9.85-1.29.64-1.93.05-3.24S361.59,292.83,360.89,293.24Z" style="fill:#263238;opacity:0.5"></path><path d="M363.35,300.44c-.77-.21-9.9-.6-9.9-.6s7.13,5.72,7.85,6.08,1.81-.92,2.32-2.26S364.12,300.64,363.35,300.44Z" style="fill:#263238;opacity:0.5"></path><path d="M354.07,300.52l-.61-.67h0s0,0,0,.09Z" style="fill:#263238"></path><path d="M353.45,299.92v-.07h0l0,0Z" style="fill:#263238"></path><path d="M353.41,299.89l0,0h-.08Z" style="fill:#263238"></path><path d="M355.9,301.11c.09-.19,1.65,0,1.33.65S355.8,301.3,355.9,301.11Z" style="fill:#fff;opacity:0.5"></path><path d="M359.16,301.19c0-.21,1.53-.63,1.49.08S359.15,301.4,359.16,301.19Z" style="fill:#fff;opacity:0.5"></path><path d="M354.84,297c-.19-.09,0-1.65.65-1.34S355,297.13,354.84,297Z" style="fill:#fff;opacity:0.5"></path><path d="M351.74,295.46c-.18.11-1.4-.87-.8-1.26S351.91,295.35,351.74,295.46Z" style="fill:#fff;opacity:0.5"></path><path d="M358.68,297.34c-.11-.18.92-1.37,1.28-.75S358.78,297.52,358.68,297.34Z" style="fill:#fff;opacity:0.5"></path><g style="opacity:0.6000000000000001"><polygon points="358.9 298.96 354.05 334.24 329.41 334.24 324.56 298.96 358.9 298.96" style="fill:#ebebeb"></polygon><path d="M358.91,299c-.07.2-4.65,35.28-4.7,35.45l-24.8.06h-.21l0-.2L324.39,299l0-.2h.2c8.56,0,25.79.09,34.35.17Zm0,0c-8.57.08-25.8.15-34.35.17l.16-.19,4.92,35.26-.23-.2,24.64.06-.17.15,5-35.25Z" style="fill:#263238"></path></g><polygon points="356.36 299.07 351.98 331.69 331.48 331.69 327.09 298.96 356.36 299.07" style="fill:#c7c7c7;opacity:0.6000000000000001"></polygon><polygon points="354.26 314.74 351.98 331.69 331.48 331.69 329.2 314.74 354.26 314.74" style="fill:#263238;opacity:0.6000000000000001"></polygon><rect x="332.55" y="320.9" width="1" height="6.03" transform="translate(-37.55 43.74) rotate(-7.11)" style="fill:#fff"></rect><rect x="330.73" y="298.88" width="1" height="20.96" transform="translate(-35.76 43.4) rotate(-7.11)" style="fill:#fff"></rect><rect x="188.11" y="265.72" width="0.73" height="33.88" transform="translate(247.4 -51.92) rotate(43.68)" style="fill:#263238"></rect><rect x="188.11" y="265.72" width="0.73" height="33.88" transform="translate(247.4 -51.92) rotate(43.68)" style="opacity:0.5"></rect><path d="M185.47,290.75a3.45,3.45,0,1,1,.22-5.18A3.68,3.68,0,0,1,185.47,290.75Z" style="fill:#263238"></path><rect x="192.12" y="267.32" width="0.73" height="22.26" transform="translate(245.64 -55.85) rotate(43.69)" style="fill:#263238"></rect><polyline points="197.92 273.29 200.44 270.66 199.91 270.15 184.54 286.25 185.06 286.75 197.92 273.29" style="opacity:0.5"></polyline><g style="opacity:0.6000000000000001"><g style="opacity:0.5"><path d="M192.11,334.24h-33.3s.72-1.41,1.61-1.71,4.34-.28,7.72-1.17,5.66-3.95,5.78-5.16c.09-.88-.72-22.73-1.83-24.11-2.15-2.69-24.87-26.31-24.87-26.31H203.7S181,299.4,178.83,302.09c-1.11,1.38-1.92,23.23-1.83,24.11.12,1.21,2.39,4.27,5.78,5.16s6.83.86,7.72,1.17S192.11,334.24,192.11,334.24Z" style="fill:#ebebeb"></path><path d="M192.11,334.24l-33.3.12h-.21a3.87,3.87,0,0,1,1.84-2,19.39,19.39,0,0,1,2.47-.31c3.18-.33,6.67-.65,9-3.06a5.5,5.5,0,0,0,1.84-3c-.05-3.68-.25-7.37-.44-11a103.44,103.44,0,0,0-1.17-12.2,1.8,1.8,0,0,0-.56-1c-2.55-2.9-8.23-8.79-10.93-11.66l-13.62-14.2-.38-.4h.55l56.48,0h.44l-.3.32-13.63,14.2-6.77,7.14c-.93,1-3.73,3.95-4.53,5a12.06,12.06,0,0,0-.59,2.95c-.7,6.51-1,13.08-1.23,19.62a4,4,0,0,0,.34,2.36c2,3.83,6.58,4.73,10.57,5a22.31,22.31,0,0,1,2.44.32,3.5,3.5,0,0,1,1.67,1.74Zm0,0a3.47,3.47,0,0,0-1.68-1.72,19.67,19.67,0,0,0-2.43-.3c-4-.26-8.59-1.14-10.69-5a4.18,4.18,0,0,1-.38-2.42c.3-7.37.32-14.81,1.52-22.1.15-.84.93-1.4,1.44-2l3.34-3.62,6.75-7.16,13.58-14.24c1.18.8-56.53.13-56.34.36l.17-.39L161,289.86c2.28,2.41,7.95,8.41,10.1,10.78.41.47.84.9,1.22,1.42a12,12,0,0,1,.62,3.08c.69,6.53.94,13.09,1.15,19.66a4.24,4.24,0,0,1-.37,2.46,9.31,9.31,0,0,1-5.88,4.33c-2.38.63-4.9.64-7.29,1a3.45,3.45,0,0,0-1.6,1.66l-.11-.18,33.3.13Z" style="fill:#263238"></path></g><path d="M200.44,276c-3.26,3.46-18.83,20.05-20.6,21.83-2,2-3.49,2.6-4.38,2.6s-2.36-.58-4.38-2.6c-1.77-1.78-17.39-18.37-20.65-21.83Z" style="fill:#c7c7c7;opacity:0.6000000000000001"></path></g><rect x="171.38" y="293.57" width="1" height="4.92" transform="translate(-155.73 196.78) rotate(-43.01)" style="fill:#fff"></rect><rect x="160.17" y="272.81" width="1" height="22.4" transform="translate(-150.54 185.91) rotate(-43.01)" style="fill:#fff"></rect><rect x="174.28" y="302.84" width="1" height="22.32" transform="translate(-12.88 7.52) rotate(-2.38)" style="fill:#fff"></rect><g style="opacity:0.5"><path d="M316.87,253v32c0,11.37-5.28,21.55-5.28,27.62v21.18h-24V312.65c0-6.07-5.28-16.25-5.28-27.62V253Z" style="fill:#ebebeb"></path><path d="M316.87,253l.09,20.33c-.1,6,.5,14.5-.85,20.35-1.06,6.67-4.24,13-4.35,19.8l0,20.36V334h-.2l-24,0h-.24v-.24l0-20.36c.09-3.37-1-6.64-1.86-9.9-1.91-6.5-3.59-13.21-3.38-20,0-6.61,0-23.86.05-30.68.08-.1,34.6.22,34.7.14Zm0,0-34.57.13.13-.13c0,6.84,0,23.95.05,30.54-.18,6.81,1.5,13.43,3.43,19.92.91,3.27,2,6.59,1.9,10l0,20.36-.25-.24,24,0-.21.2,0-20.36c.13-6.83,3.33-13.16,4.42-19.85,1.35-5.79.82-14.29,1-20.25l.08-20.38Z" style="fill:#263238"></path></g><g style="opacity:0.8"><path d="M309.45,322.59v5.75H289.72v-5.75Z" style="fill:#263238"></path><g style="opacity:0.1"><path d="M295.44,324.23a1,1,0,1,0,.07,1.47A1,1,0,0,0,295.44,324.23Z"></path><path d="M307.59,323.42a.73.73,0,1,0,.05,1A.74.74,0,0,0,307.59,323.42Z"></path></g></g><g style="opacity:0.6000000000000001"><path d="M294.24,333.83h-3v-25c0-1.39-1.05-5.08-2.07-8.64-1.42-4.95-2.88-10.07-2.88-13.09v-8.5h3v8.5c0,2.6,1.47,7.74,2.76,12.27,1.18,4.1,2.19,7.65,2.19,9.46Z" style="fill:#fff"></path><rect x="286.29" y="252.99" width="3" height="20.09" style="fill:#fff"></rect></g></g><g id="freepik--Sparkles--inject-160"><rect x="147.59" y="65.4" width="1" height="4.64" style="fill:#263238"></rect><rect x="151.76" y="69.7" width="4.6" height="1" transform="translate(-4.02 130.81) rotate(-45.47)" style="fill:#263238"></rect><rect x="154.28" y="75.74" width="4.57" height="1" style="fill:#263238"></rect><rect x="153.63" y="80" width="1" height="4.61" transform="translate(-13.45 131.79) rotate(-44.55)" style="fill:#263238"></rect><rect x="147.68" y="82.53" width="1" height="4.64" style="fill:#263238"></rect><rect x="139.91" y="81.87" width="4.61" height="1" transform="translate(-16.24 126) rotate(-45.47)" style="fill:#263238"></rect><rect x="137.42" y="75.83" width="4.57" height="1" style="fill:#263238"></rect><rect x="141.64" y="67.96" width="1" height="4.61" transform="translate(-8.44 119.94) rotate(-44.56)" style="fill:#263238"></rect><rect x="332.69" y="205.69" width="1" height="4.64" style="fill:#263238"></rect><rect x="336.86" y="209.99" width="4.61" height="1" transform="translate(-48.73 304.69) rotate(-45.47)" style="fill:#263238"></rect><rect x="339.38" y="216.03" width="4.57" height="1" style="fill:#263238"></rect><rect x="338.73" y="220.29" width="1" height="4.6" transform="translate(-58.67 301.97) rotate(-44.55)" style="fill:#263238"></rect><rect x="332.78" y="222.82" width="1" height="4.64" style="fill:#263238"></rect><rect x="325" y="222.16" width="4.61" height="1" transform="translate(-60.95 299.88) rotate(-45.47)" style="fill:#263238"></rect><rect x="322.52" y="216.12" width="4.57" height="1" style="fill:#263238"></rect><rect x="326.74" y="208.25" width="1" height="4.6" transform="translate(-53.67 290.07) rotate(-44.55)" style="fill:#263238"></rect><rect x="160.26" y="172.67" width="1" height="2.56" style="fill:#263238"></rect><rect x="162.79" y="174.81" width="2.54" height="1" transform="translate(-75.97 169.35) rotate(-45.47)" style="fill:#263238"></rect><rect x="164.18" y="178.15" width="2.52" height="1" style="fill:#263238"></rect><rect x="163.6" y="180.73" width="1" height="2.54" transform="translate(-80.53 167.45) rotate(-44.56)" style="fill:#263238"></rect><rect x="160.31" y="182.12" width="1" height="2.56" style="fill:#263238"></rect><rect x="156.24" y="181.54" width="2.54" height="1" transform="translate(-82.71 166.52) rotate(-45.43)" style="fill:#263238"></rect><rect x="154.87" y="178.2" width="2.52" height="1" style="fill:#263238"></rect><rect x="156.98" y="174.08" width="1" height="2.54" transform="translate(-77.76 160.89) rotate(-44.56)" style="fill:#263238"></rect><rect x="442.48" y="178.68" width="1" height="2.56" style="fill:#263238"></rect><rect x="445" y="180.82" width="2.54" height="1" transform="translate(4.06 372.34) rotate(-45.47)" style="fill:#263238"></rect><rect x="446.39" y="184.16" width="2.52" height="1" style="fill:#263238"></rect><rect x="445.81" y="186.74" width="1" height="2.54" transform="translate(-3.6 367.24) rotate(-44.56)" style="fill:#263238"></rect><rect x="442.53" y="188.13" width="1" height="2.56" style="fill:#263238"></rect><rect x="438.46" y="187.54" width="2.54" height="1" transform="translate(-2.68 369.68) rotate(-45.47)" style="fill:#263238"></rect><rect x="437.09" y="184.21" width="2.52" height="1" style="fill:#263238"></rect><rect x="439.19" y="180.09" width="1" height="2.54" transform="translate(-0.88 360.56) rotate(-44.55)" style="fill:#263238"></rect><rect x="56.47" y="151.99" width="1" height="2.56" style="fill:#263238"></rect><rect x="59" y="154.14" width="2.54" height="1" transform="translate(-92.24 89.17) rotate(-45.47)" style="fill:#263238"></rect><rect x="60.39" y="157.47" width="2.52" height="1" style="fill:#263238"></rect><rect x="59.81" y="160.05" width="1" height="2.54" transform="translate(-95.85 88.68) rotate(-44.56)" style="fill:#263238"></rect><rect x="56.52" y="161.44" width="1" height="2.56" style="fill:#263238"></rect><rect x="52.45" y="160.86" width="2.54" height="1" transform="translate(-98.99 86.51) rotate(-45.47)" style="fill:#263238"></rect><rect x="51.08" y="157.52" width="2.52" height="1" style="fill:#263238"></rect><rect x="53.19" y="153.4" width="1" height="2.54" transform="translate(-93.1 82.15) rotate(-44.56)" style="fill:#263238"></rect><rect x="214.86" y="294.51" width="1" height="2.56" style="fill:#263238"></rect><rect x="217.39" y="296.66" width="2.54" height="1" transform="translate(-146.53 244.68) rotate(-45.47)" style="fill:#263238"></rect><rect x="218.78" y="299.99" width="2.52" height="1" style="fill:#263238"></rect><rect x="218.2" y="302.57" width="1" height="2.54" transform="translate(-150.32 240.78) rotate(-44.56)" style="fill:#263238"></rect><rect x="214.91" y="303.96" width="1" height="2.56" style="fill:#263238"></rect><rect x="210.84" y="303.38" width="2.54" height="1" transform="translate(-153.27 242.02) rotate(-45.47)" style="fill:#263238"></rect><rect x="209.47" y="300.04" width="2.52" height="1" style="fill:#263238"></rect><rect x="211.58" y="295.92" width="1" height="2.54" transform="translate(-147.56 234.22) rotate(-44.56)" style="fill:#263238"></rect></g></svg>
